<?xml version="1.0" encoding="utf-8"?>
<!-- Generator: Adobe Illustrator 17.0.0, SVG Export Plug-In . SVG Version: 6.00 Build 0)  -->
<!DOCTYPE svg PUBLIC "-//W3C//DTD SVG 1.1//EN" "http://www.w3.org/Graphics/SVG/1.1/DTD/svg11.dtd">
<svg version="1.1" id="Layer_1" xmlns="http://www.w3.org/2000/svg" xmlns:xlink="http://www.w3.org/1999/xlink" x="0px" y="0px"
	 width="225px" height="225px" viewBox="0 0 225 225" enable-background="new 0 0 225 225" xml:space="preserve">
<path fill="#FFFEFE" d="M-273.687,234.15c-75.334,0-150.637,0-225.909,0c0-75.334,0-150.637,0-225.909c75.334,0,150.637,0,225.909,0
	C-273.687,83.576-273.687,158.879-273.687,234.15z M-387.143,214.195c51.502,0.001,93.373-41.768,93.482-93.256
	c0.11-51.958-41.812-93.769-93.99-93.741c-51.228,0.028-93.134,42.269-93.004,93.747
	C-480.524,172.42-438.633,214.194-387.143,214.195z"/>
<g>
	<path fill="#FB140F" d="M112.383,223.733C51.053,223.732,1.156,173.974,1,112.663C0.845,51.347,50.76,1.033,111.778,1
		c62.15-0.034,112.084,49.768,111.952,111.655C223.6,173.983,173.727,223.735,112.383,223.733z M202.071,112.606
		c0.136-49.303-40.153-89.824-89.433-89.948c-49.308-0.124-89.738,40.08-89.96,89.456c-0.221,49.205,40.116,89.769,89.433,89.936
		C161.427,202.218,201.935,161.942,202.071,112.606z"/>
	<path fill="#FA1813" d="M101.458,95.427c0.001-8.711-0.105-17.424,0.033-26.133c0.124-7.835,4.055-12.246,10.655-12.371
		c6.828-0.13,11.078,4.427,11.132,12.481c0.115,17.421,0.102,34.844,0.007,52.266c-0.044,7.993-4.303,12.765-10.951,12.736
		c-6.638-0.03-10.76-4.797-10.853-12.845C101.379,112.85,101.457,104.138,101.458,95.427z"/>
	<path fill="#FA1611" d="M112.331,146.248c6.165-0.026,10.967,4.767,10.884,10.864c-0.084,6.163-4.898,10.81-11.073,10.69
		c-5.843-0.113-10.451-4.71-10.611-10.586C101.367,151.207,106.224,146.274,112.331,146.248z"/>
</g>
</svg>
