<?xml version="1.0" encoding="utf-8"?>
<!-- Generator: Adobe Illustrator 17.0.0, SVG Export Plug-In . SVG Version: 6.00 Build 0)  -->
<!DOCTYPE svg PUBLIC "-//W3C//DTD SVG 1.1//EN" "http://www.w3.org/Graphics/SVG/1.1/DTD/svg11.dtd">
<svg version="1.1" id="Layer_1" xmlns="http://www.w3.org/2000/svg" xmlns:xlink="http://www.w3.org/1999/xlink" x="0px" y="0px"
	 width="1720px" height="512px" viewBox="0 0 1720 512" enable-background="new 0 0 1720 512" xml:space="preserve">
<g>
	<path fill="#FFFFFF" d="M1282.635,256.027c0-69.66-0.001-139.32,0.001-208.98c0-6.111,0.626-6.75,6.743-6.748
		c69.533,0,139.728-3.016,209.186-0.293c56.977,2.233,108.495,18.772,148.775,60.65c19.736,20.519,39.962,47.705,50.73,74.286
		c13.874,34.246,14.839,67.363,14.888,103.747c0.053,39.872,0.06,79.745,0.066,119.617c0.003,22.128,0.009,44.255,0.012,66.383
		c0.001,5.805-1.233,7.078-6.771,7.078c-30.89,0.005-61.78,0.006-92.669-0.033c-9.038-0.011-10.705-1.757-10.706-10.722
		c-0.005-72.654,0.039-145.309-0.103-217.963c-0.047-23.991-11.229-43.399-26.225-61.415
		c-12.559-15.088-32.999-28.874-52.812-31.138c-25.996-2.97-53.65-1.304-79.846-1.778c-12.598-0.228-25.204-0.025-37.806-0.113
		c-6.336-0.044-10.016-1.705-13.04,5.117c-3.678,8.3-0.804,21.406-0.409,30.113c1.026,22.599-0.573,45.167-0.16,67.774
		c0.828,45.257,0.568,90.634,0.158,135.9c-0.232,25.593,0.087,51.203,0.097,76.799c0.002,6.271-1.188,7.462-7.391,7.461
		c-31.678-0.005-63.355-0.004-95.033,0.01c-7.36,0.003-7.685-0.296-7.685-7.72C1282.635,394.714,1282.635,325.37,1282.635,256.027z"
		/>
	<path fill="#FFFFFF" d="M963.881,218.214c-2.96,0-5.92,0-9.203,0c0,2.817,0,5.283,0,8.476c-4.665-0.681-9.082,2.106-12.587-3.958
		c-3.297-5.707-12.141-4.819-16.214,1.171c-1.631,2.398-3.305,2.545-5.696,2.881c-13.28,1.867-24.97-2.949-36.679-8.113
		c-9.574-4.222-19.308-8.081-28.956-12.135c-2.093-0.88-4.352-1.795-1.932-4.877c-4.206-1.814-8.11-3.611-12.1-5.191
		c-5.756-2.279-10.615-5.191-15.096-10.019c-14.3-15.408-31.934-25.634-52.813-29.735c-17.386-3.415-34.723-3.109-51.65,2.082
		c-13.211,4.052-25.074,10.786-35.791,19.789c-10.427,8.758-18.569,19.203-24.614,31.127c-6.98,13.77-10.517,28.463-10.736,44.177
		c-0.235,16.831,2.685,32.813,10.327,47.607c13.541,26.215,34.172,44.436,63.132,51.97c8.008,2.083,16.411,3.28,24.68,3.584
		c15.258,0.561,30.55,0.172,45.829,0.141c1.484-0.003,3.7,0.786,3.203-2.207l-0.123,0.105c13.074,0,26.147,0,39.221,0
		c0.003,0.559,0.007,1.118,0.01,1.677c-11.936,0-23.872,0-36.218,0c38.511,38.423,76.536,76.36,114.56,114.297
		c-0.359,0.356-0.718,0.713-1.077,1.069c-2.059-0.17-4.118-0.486-6.176-0.487c-49.326-0.028-98.653-0.021-147.979-0.021
		c-10.273,0-20.556,0.266-30.817-0.096c-6.529-0.23-13.129-0.9-19.511-2.254c-9.157-1.943-18.305-4.217-27.151-7.243
		c-6.916-2.366-13.362-6.101-20.026-9.206c-4.17-1.943-8.39-3.783-12.533-5.781c-10.555-5.091-20.188-11.596-29.406-18.822
		c-4.629-3.628-9.962-6.35-14.673-9.885c-1.849-1.387-2.679-4.05-4.301-5.835c-5.149-5.663-10.647-11.019-15.642-16.812
		c-4.829-5.6-9.709-11.272-13.653-17.491c-5.498-8.67-10.516-17.696-15.055-26.907c-4.811-9.764-9.042-19.835-13.071-29.953
		c-1.63-4.095-1.827-8.736-3.065-13.017c-6.194-21.41-6.204-43.38-5.49-65.309c0.377-11.588,1.195-23.415,3.948-34.61
		c3.483-14.164,8.59-28.014,14.045-41.578c3.835-9.538,8.886-18.707,14.373-27.425c5.244-8.333,11.461-16.115,17.802-23.676
		c4.872-5.809,10.791-10.727,15.911-16.345c9.554-10.482,21.228-18.363,32.679-26.392c7.243-5.079,15.485-8.837,23.546-12.617
		c9.32-4.37,18.831-8.384,28.464-12.01c4.562-1.717,9.674-1.904,14.408-3.242c20.717-5.856,41.951-6.144,63.167-5.476
		c11.277,0.355,22.789,1.222,33.679,3.931c14.381,3.578,28.654,8.273,42.243,14.169c15.527,6.736,30.464,14.975,43.47,26.148
		c8.143,6.995,16.793,13.503,24.238,21.178c7.465,7.696,13.969,16.38,20.439,24.974c9.676,12.853,17.689,26.771,23.378,41.824
		c4.035,10.676,7.223,21.684,10.471,32.639c1.329,4.483,1.82,9.214,2.693,13.832L963.881,218.214z"/>
	<path fill="#FFFFFF" d="M1187.838,196.188c0,92.669,0,185.123,0,278.239c-1.711,0-3.375,0-5.039,0
		c-32.15,0-64.302-0.189-96.449,0.135c-7.925,0.08-9.465-2.034-9.468-9.559c-0.017-45.073-0.008-90.146-0.007-135.219
		c0.001-41.921,0.002-83.842,0.004-125.763c0-5.66,2.333-8.199,7.814-8.203c33.253-0.026,66.506-0.012,99.759,0.01
		C1185.517,195.829,1186.58,196.049,1187.838,196.188z"/>
	<path fill="#FFFFFF" d="M963.76,218.338c4.065,0,8.13,0,12.861,0c-1.548-7.273-2.592-13.961-4.423-20.426
		c-4.54-16.033-9.647-32.008-18.101-46.389c-8.192-13.936-17.246-27.462-26.968-40.38c-16.475-21.892-37.749-38.631-61.146-52.519
		c-22.306-13.24-46.285-22.589-72.008-26.641c-12.24-1.928-24.65-3.073-37.028-3.763c-28.604-1.594-56.254,3.333-83.167,13.038
		c-23.014,8.299-44.206,19.795-63.131,35.29c-8.193,6.708-16.438,13.481-23.775,21.078c-13.592,14.072-25.185,29.728-34.839,46.842
		c-10.687,18.946-18.537,38.947-23.231,60.132c-2.033,9.175-3.308,18.54-4.494,27.874c-0.979,7.704-2.225,15.544-1.75,23.225
		c0.947,15.312,2.078,30.723,4.812,45.788c3.753,20.678,10.514,40.693,20.916,58.99c7.982,14.04,17.238,27.457,26.929,40.402
		c16.431,21.949,37.782,38.597,61.147,52.52c22.286,13.279,46.285,22.579,71.999,26.668c12.082,1.921,24.352,3.598,36.551,3.698
		c77.171,0.632,154.346,0.861,231.52,0.985c6.775,0.011,8.272,5.96,13.901,9.192c-2.631,0.192-3.908,0.366-5.186,0.366
		c-83.831,0.013-167.663,0.249-251.49-0.246c-12.535-0.074-25.206-2.89-37.538-5.664c-20.055-4.512-39.275-11.658-57.401-21.502
		c-14.157-7.688-27.661-16.369-39.803-27.018c-6.572-5.764-13.391-11.32-19.403-17.633c-13.926-14.623-26.062-30.623-36.122-48.23
		c-11.027-19.3-19.029-39.776-24.197-61.279c-2.625-10.924-4.305-22.186-5.175-33.392c-1.055-13.589-1.67-27.332-0.865-40.912
		c0.746-12.592,2.951-25.205,5.697-37.545c4.466-20.074,11.672-39.277,21.502-57.399c7.679-14.156,16.355-27.673,27.037-39.795
		c5.78-6.558,11.323-13.389,17.637-19.399c14.627-13.922,30.629-26.062,48.241-36.106C651.48,37.8,670.76,30.03,690.959,24.871
		c11.918-3.044,24.262-4.749,36.522-6.027c10.727-1.118,21.602-0.893,32.415-1.089c15.779-0.286,31.252,2.329,46.516,5.897
		c19.88,4.647,38.921,11.711,56.951,21.412c14.336,7.712,27.938,16.488,40.212,27.214c6.464,5.648,13.154,11.109,19.071,17.297
		c14.069,14.712,26.322,30.828,36.417,48.593c10.898,19.178,18.969,39.46,23.982,60.866c2.528,10.793,4.015,21.863,5.401,32.879
		c1.124,8.931,0.745,8.978-8.326,8.978c-2.679,0-5.388-0.255-8.03,0.057c-4.375,0.516-5.065-1.723-5.409-5.454
		c-0.534-5.799-1.824-11.528-2.797-17.283C963.881,218.214,963.76,218.338,963.76,218.338z"/>
	<path fill="#FFFFFF" d="M796.984,354.984c-11.271-0.19-22.543-0.386-33.814-0.567c-2.678-0.043-5.367-0.194-8.033-0.025
		c-21.764,1.381-41.424-4.653-59.251-16.915c-23.524-16.181-37.795-38.306-42.088-66.638c-4.415-29.138,2.948-55.031,21.743-77.703
		c15.985-19.282,36.273-30.9,61.116-34.558c29.007-4.271,54.73,3.041,77.274,21.681c3.123,2.582,5.89,5.615,9.116,8.049
		c3.12,2.354,3.26,4.974,1.857,8.173c-0.804,1.833-1.518,3.706-2.276,5.56c-2.493,6.097-2.089,7.087,3.793,9.379
		c4.441,1.73,8.875,3.475,13.402,5.248c-0.683,1.765-1.495,3.419-1.922,5.167c-0.195,0.799,0.368,1.783,0.587,2.683
		c0.862-0.3,2.1-0.336,2.524-0.942c2.767-3.954,5.358-8.031,8.35-12.593c6.636,2.711,13.688,5.507,20.672,8.465
		c9.224,3.905,18.154,8.722,27.674,11.63c6.076,1.856,12.992,1.238,19.529,1.213c4.085-0.015,7.115,0.511,9.909,4.164
		c3.934,5.144,10.174,4.989,14.681,0.56c4.913-4.828,4.913-4.828,12.398-4.453c0.088,1.288,0.213,2.633,0.262,3.981
		c0.046,1.242,0.01,2.487,0.01,4.236c4.086,0,7.936,0,12.031,0c0,4.537,0,8.575,0,12.984c-46.924,0-93.933,0-141.095,0
		c-0.466-4.027-0.54-8.245-1.5-12.251c-2.331-9.725-5.286-19.119-11.538-27.387c-4.17-5.515-8.172-10.879-13.559-15.38
		c-7.03-5.874-14.687-10.268-23.143-13.669c-10.743-4.321-21.951-4.39-33.045-3.53c-7.046,0.546-14.181,2.624-20.813,5.204
		c-10.265,3.993-19.176,10.408-26.457,18.762c-7.538,8.65-12.943,18.315-16.305,29.555c-3.719,12.434-3.827,24.858-1.282,36.964
		c1.953,9.294,5.64,18.401,11.872,26.401c6.15,7.894,12.698,15.197,21.075,20.446c5.5,3.446,11.804,5.736,17.946,8.007
		c13.481,4.984,27.588,5.168,41.734,4.872c1.205-0.025,2.692,0.731,3.609,1.591c7.661,7.193,15.219,14.496,22.821,21.754
		C796.861,355.089,796.984,354.984,796.984,354.984z"/>
	<path fill="#FFFFFF" d="M1187.857,42.124c0,35.765,0,71.15,0,107.089c-3.073-0.404-5.886-1.085-8.703-1.095
		c-22.991-0.088-45.982-0.11-68.973-0.019c-8.096,0.032-16.192,0.427-24.287,0.673c-3.744,0.114-7.277-4.153-7.943-9.683
		c-0.094-0.777-0.029-1.573-0.029-2.36c0.003-29.29,0.003-58.58,0.013-87.87c0.002-5.08,1.731-7.018,6.563-7.021
		c33.699-0.02,67.398,0.006,101.098,0.028C1186.207,41.866,1186.819,42.001,1187.857,42.124z"/>
	<path fill="#FFFFFF" d="M750.623,271.151c-8.388,0-15.505-7.183-15.503-15.647c0.002-8.702,6.952-15.574,15.729-15.551
		c8.26,0.022,15.473,7.362,15.469,15.743C766.314,264.18,759.234,271.151,750.623,271.151z"/>
	<path fill="#FFFFFF" d="M436.977,258.615c0,69.66,0.001,139.32-0.001,208.98c0,6.111-0.626,6.75-6.743,6.748
		c-69.533,0-139.728,3.016-209.186,0.293c-56.977-2.233-108.495-18.772-148.775-60.65c-19.736-20.519-39.962-47.705-50.73-74.286
		C7.668,305.455,6.702,272.338,6.654,235.954c-0.053-39.872-0.06-79.745-0.066-119.617C6.585,94.21,6.579,72.082,6.576,49.954
		c-0.001-5.805,1.233-7.078,6.771-7.078c30.89-0.005,61.78-0.006,92.669,0.033c9.038,0.011,10.705,1.757,10.706,10.722
		c0.005,72.654-0.039,145.309,0.103,217.963c0.047,23.991,11.229,43.399,26.225,61.415c12.56,15.088,32.999,28.874,52.812,31.138
		c25.996,2.97,53.65,1.304,79.847,1.778c12.598,0.228,25.204,0.025,37.806,0.113c6.336,0.044,10.017,1.705,13.04-5.117
		c3.678-8.3,0.804-21.406,0.409-30.113c-1.026-22.599,0.573-45.167,0.16-67.774c-0.828-45.257-0.568-90.634-0.158-135.9
		c0.232-25.593-0.087-51.203-0.097-76.799c-0.002-6.271,1.187-7.462,7.391-7.461c31.678,0.005,63.355,0.004,95.033-0.01
		c7.36-0.003,7.685,0.296,7.685,7.72C436.977,119.927,436.977,189.271,436.977,258.615z"/>
</g>
</svg>
